<?xml version="1.0" standalone="no"?><!DOCTYPE svg PUBLIC "-//W3C//DTD SVG 1.1//EN" "http://www.w3.org/Graphics/SVG/1.1/DTD/svg11.dtd"><svg t="1692022566342" class="icon" viewBox="0 0 3226 1024" version="1.1" xmlns="http://www.w3.org/2000/svg" p-id="10025" xmlns:xlink="http://www.w3.org/1999/xlink" width="630.078125" height="200"><path d="M87.291803 518.11909V877.250132a29.674881 29.674881 0 0 0 36.822845 28.808461l49.169329-11.913273V440.899418H100.721311a101.046219 101.046219 0 0 1-100.721311-100.721311V117.508197a99.854892 99.854892 0 0 1 99.638287-99.638287h167.868852a99.096774 99.096774 0 0 1 99.638287 99.638287v222.66991a100.071497 100.071497 0 0 1-99.638287 100.721311H249.095717v129.962983h132.562242v75.81174H249.095717v229.601269l110.793442-27.942041L379.058699 922.195664l-287.543099 75.811739A64.331676 64.331676 0 0 1 10.830249 933.35082V582.992279a64.981491 64.981491 0 0 1 64.981491-64.981491zM100.721311 94.006557A24.692967 24.692967 0 0 0 75.81174 119.132734v221.045373a24.692967 24.692967 0 0 0 24.909571 24.692967h166.785828a23.609942 23.609942 0 0 0 23.501639-23.50164V117.508197a23.501639 23.501639 0 0 0-23.501639-23.50164z m590.898361 864.037229a64.981491 64.981491 0 0 1-64.981491 64.981492H574.003173a140.143416 140.143416 0 0 1-139.926811-140.793231V146.641565A140.143416 140.143416 0 0 1 574.003173 5.631729h254.185933a141.443046 141.443046 0 0 1 140.793231 140.793231V402.885246a141.443046 141.443046 0 0 1-140.793231 140.793231h-96.280909l73.862295 122.165204 62.273929-41.913062a77.869487 77.869487 0 0 1 108.302485 20.685774L844.759387 731.908197l151.623479 249.095716-10.830248 6.281544a64.981491 64.981491 0 0 1-88.591433-22.310312L642.342041 543.895082H510.321311v338.012057a63.356954 63.356954 0 0 0 63.790164 64.981491h117.508197zM510.321311 236.099418h382.740984v-89.457853a64.223374 64.223374 0 0 0-64.981491-64.981491H574.003173a63.356954 63.356954 0 0 0-63.790164 64.981491z m382.740984 166.785828v-90.64918H510.321311v155.522369h317.867795a64.981491 64.981491 0 0 0 64.873189-64.873189zM1215.478794 218.229508l183.572713 307.795664a1587.064622 1587.064622 0 0 0 80.901957-326.207086 32.490746 32.490746 0 0 0-32.490746-37.47266h-300.322792v-10.830249a64.981491 64.981491 0 0 1 64.981491-64.981491h286.351772a64.981491 64.981491 0 0 1 64.223374 74.403807 1923.560444 1923.560444 0 0 1-103.970386 415.989847 64.981491 64.981491 0 0 0 4.981914 56.317292l135.703014 226.5688-9.205711 5.523427a64.981491 64.981491 0 0 1-89.132946-22.20201l-92.057112-153.789529a1131.869276 1131.869276 0 0 1-232.742041 312.236066l-9.963829-10.830249a64.981491 64.981491 0 0 1-0.541513-89.132946 1070.678371 1070.678371 0 0 0 181.514966-255.702168 64.981491 64.981491 0 0 0-2.274352-62.923744l-162.453728-269.673189a64.981491 64.981491 0 0 1 22.526917-89.241248zM1682.045902 143.284188h232.850343a70.504918 70.504918 0 0 0 70.504918-70.504918V5.631729a5.631729 5.631729 0 0 1 5.63173-5.631729 70.504918 70.504918 0 0 1 70.504918 70.504918V877.250132a147.074775 147.074775 0 0 1-146.641566 146.641566h-94.006557a64.981491 64.981491 0 0 1-64.981491-64.981492V953.061872a5.631729 5.631729 0 0 1 5.631729-5.631729h153.248017a70.504918 70.504918 0 0 0 70.61322-70.180011V289.817451a70.504918 70.504918 0 0 0-70.504918-70.504918h-292.41671a5.631729 5.631729 0 0 1-5.63173-5.631729v-5.631729a64.981491 64.981491 0 0 1 65.198097-64.764887z" fill="#02C1FF" p-id="10026"></path><path d="M1718.543839 432.018614l120.215759 203.608673-10.072131 5.956637a64.981491 64.981491 0 0 1-88.916341-22.851825l-120.215758-203.608672 10.072131-5.956637a64.981491 64.981491 0 0 1 88.91634 22.851824zM2758.68091 38.447382c-10.830249 64.981491-22.851824 126.82221-37.580963 188.013115a64.981491 64.981491 0 0 0 10.830249 53.501428L3226.439344 963.892121l-10.180433 7.256266a64.981491 64.981491 0 0 1-90.324273-14.83744L2686.984664 348.409096c-80.577049 252.886304-213.789106 476.530936-427.46991 667.035008l-9.205711-10.830249a64.981491 64.981491 0 0 1 4.548704-89.674458c236.424326-227.435219 356.640085-507.072237 416.747964-826.564569a64.981491 64.981491 0 0 1 74.0789-52.201798z" fill="#02C1FF" p-id="10027"></path></svg>